<?xml version="1.0" encoding="utf-8" ?>
<svg baseProfile="full" height="300mm" version="1.1" viewBox="0,0,200,300" width="200mm" xmlns="http://www.w3.org/2000/svg" xmlns:ev="http://www.w3.org/2001/xml-events" xmlns:xlink="http://www.w3.org/1999/xlink"><defs /><rect fill="#222222" height="300" width="200" x="0" y="0" /><text fill="#FFFFFF" style="font-size:12px; font-family:Arial; font-weight:bold;" x="10" y="20">Over 10km Runs</text><text fill="#FFFFFF" style="font-size:4px; font-family:Arial" x="10" y="280">Runner</text><text fill="#FFFFFF" style="font-size:9px; font-family:Arial" x="10" y="290">i自在</text><text fill="#FFFFFF" style="font-size:4px; font-family:Arial" x="65" y="280">SPECIAL TRACKS</text><rect fill="#FFFF00" height="2.6" width="2.6" x="65" y="283" /><text fill="#FFFFFF" style="font-size:3px; font-family:Arial" x="70" y="285.5">Over 5.0 km</text><rect fill="#FF6B6B" height="2.6" width="2.6" x="65" y="287" /><text fill="#FFFFFF" style="font-size:3px; font-family:Arial" x="70" y="289.5">Over 10.0 km</text><text fill="#FFFFFF" style="font-size:4px; font-family:Arial" x="120" y="280">STATISTICS</text><text fill="#FFFFFF" style="font-size:3px; font-family:Arial" x="120" y="285">Number: 4</text><text fill="#FFFFFF" style="font-size:3px; font-family:Arial" x="120" y="290">Weekly: 1.0</text><text fill="#FFFFFF" style="font-size:3px; font-family:Arial" x="141" y="285">Total: 40.2 km</text><text fill="#FFFFFF" style="font-size:3px; font-family:Arial" x="141" y="290">Avg: 10.0 km</text><text fill="#FFFFFF" style="font-size:3px; font-family:Arial" x="167" y="285">Min: 10.0 km</text><text fill="#FFFFFF" style="font-size:3px; font-family:Arial" x="167" y="290">Max: 10.1 km</text><polyline fill="none" points="23.805978897958994,85.68779802012432 24.01488862838596,85.85041819659818 26.730715123121627,84.34036831617414 30.32016412669327,83.22524681140203 34.02356389211491,81.13437625009101 37.53704572096467,80.0889322921721 52.08475967182312,77.37075092726445 66.51852286048234,71.33020787040005 70.25990621338133,69.471540378785 72.70984759670682,67.4037513048388 77.001992965932,60.17792859066685 78.86318874557037,58.20297717778885 80.97127784288023,57.32005104320706 91.18886283691972,56.3209454396856 94.32250879250932,55.345069748247624 95.5,62.17609371099388 93.75275498232804,61.850812457400025 83.15533411491197,62.40843712064088 76.54618991794996,73.90907872584648 54.13587338803336,83.387869107406 50.6223915591836,84.3635999441758 40.404806565027684,85.98980680783279 35.371981242555194,87.2907622212224 26.312895662384108,91.79757420919486 22.17268464236986,92.65710861960542 15.620515826391056,94.65493025175238 14.5,87.7321557727555 16.41817116062157,87.68569334220956 24.12883939035237,85.75749239858123 26.464830011711456,84.50298965240654 31.02286049234681,82.94646540678514 34.08053927309811,81.2040723083337 36.75838218058925,80.4141821435187" stroke="#FF6B6B" stroke-linecap="round" stroke-linejoin="round" stroke-width="0.5"><title>2025-09-05 10.0km</title><desc>1757068556000</desc></polyline><polyline fill="none" points="136.45918367360719,53.673880571557675 136.32142857136205,47.1829491116805 133.56632653065026,46.93005443230504 132.25765306130052,44.56969958677655 110.0790816328954,46.84575618512463 106.56632653088309,48.025930701056495 104.8443877552636,50.30197580711683 107.32397959195077,73.73637050006073 107.11734693893231,82.50298821984325 108.42602040804923,87.81348089117091 115.93367346958257,102.81750740745338 120.34183673467487,106.18915350938914 125.92091836733744,107.95926106558181 137.28571428568102,103.74471174069913 146.17091836733744,104.33475020813057 169.03826530603692,99.02438569441438 173.51530612260103,96.2427497478202 175.7882653058041,81.82863699650625 183.29591836733744,68.51006421342026 185.5,61.00771608372452 184.67346938769333,58.81600335810799 177.71683673444204,57.88873816933483 173.23979591811076,55.8656097612693 153.4030612243805,42.20933660172159 108.83928571431898,47.1829491116805 105.73979591857642,48.36312304617604 104.5,51.482144363923 107.39285714295693,74.24213995866012 106.77295918366872,81.99722486449173 109.52806122484617,90.59515108756023 116.41581632662565,103.32325538137229 125.30102040804923,107.95926106558181 138.04336734698154,103.40754667384317 146.10204081633128,104.33475020813057 171.7244897959754,97.84429909742903 173.72193877538666,95.23124296497554 175.85714285704307,81.06999107607407 181.22959183668718,73.39919065358117 185.5,60.24904708802933 183.7780612243805,58.39451933716191 175.92602040804923,57.130065717035905 156.08928571431898,42.96802559180651 153.26530612260103,42.040738934476394 106.63520408188924,47.60444003617158 104.56887755123898,51.90363264112966 107.46173469396308,74.07355018070666 106.63520408188924,81.49146113562165 108.21938775503077,87.39201472367859 115.93367346958257,102.90179876226466 124.0612244901713,107.36922572203912 127.98724489822052,107.45351651671808 137.69897959171794,103.66042048973031 146.2397959183436,104.33475020813057 172.68877551006153,97.59142313332995 174.7551020407118,91.35378645232413 175.99489795905538,80.98569703300018 181.09183673444204,73.39919065358117 184.94897959171794,63.62090285413433 184.5357142854482,58.81600335810799 176.82142857136205,57.46725357748801 154.8494897959754,42.29363541986095 128.7448979592882,44.653998114168644 128.67602040804923,46.592861381417606 125.09438775503077,47.43584369751625 130.19132653065026,48.5317191563081" stroke="#FF6B6B" stroke-linecap="round" stroke-linejoin="round" stroke-width="0.5"><title>2025-08-29 10.0km</title><desc>1756417873000</desc></polyline><polyline fill="none" points="45.85038363165222,198.59080028213793 45.57416879804805,197.15406706213253 43.22634271089919,196.7314978953218 41.776214833837,194.28059159801342 18.85038363165222,196.81601174955722 16.157289002556354,198.1682320003165 14.707161125261337,200.45009763148846 17.95268542203121,237.2124425828224 25.1342710996978,252.4238714093226 29.62276214850135,256.14216940215556 35.630434782477096,257.91680452472065 47.645780051127076,253.94499575009104 56.13938618917018,254.45203644805588 80.17007672647014,248.95907560404157 83.62276214850135,246.50835581473075 85.76342710992321,231.21228627156233 92.5997442456428,220.73301422724035 95.5,209.74650881713023 93.84271099744365,208.14077406428987 86.79923273646273,207.21113643754506 65.66879795398563,192.33676313760225 61.59462915593758,191.99870545224985 22.095907928422093,196.22441455186345 17.676470588194206,196.9850394266541 15.328644501278177,198.84434112656163 14.5,202.56292941363063 17.74552429653704,236.53637125447858 24.65089514059946,251.5788008745294 29.760869565187022,256.05766285344725 35.7685421993956,258.1703234533197 47.024296675110236,254.02950255927863 55.44884910504334,254.7055566564086 62.90664961654693,252.17035035823938 77.26982097188011,249.5506273455103 81.89641943736933,248.1140008032089 83.48465473135002,246.42384807980852 85.76342710992321,231.80385330913123 92.04731457820162,221.40910112310667 95.5,209.74650881713023 93.84271099744365,208.22528651333414 85.1419437341392,206.5350355542614 65.5997442456428,192.42127753287787 61.59462915593758,191.91419100441271 17.60741687985137,196.9850394266541 15.12148337578401,198.92885472043417 14.638107416918501,204.67575469095027 17.193094629328698,223.94442105147755 16.916879795258865,233.07149524445413 18.919437339995056,240.17024681397015 24.996163682779297,251.91682921344182 31.763427110156044,256.9872343184543 36.18286444991827,257.83229819423286 48.33631713571958,253.69147526082816 57.520460358122364,254.28302292362787 65.04731457820162,251.6633079747553 80.86061381082982,248.36752335267374 83.27749360608868,246.50835581473075 85.69437340158038,231.46581506432267 92.87595907924697,219.88790467049694 95.5,211.01419149449794 95.15473145782016,209.07041043159552 87.35166240413673,207.549186629185 83.34654731466435,205.43637019844027 64.21867007669061,191.82967654673848 42.88107416895218,194.28059159801342 42.88107416895218,198.59080028213793 43.70971866999753,199.77399008726934 45.91943734022789,199.85850356682204 46.9552429667674,205.18283178965794 49.372122762259096,206.28149755112827 51.51278772368096,205.77442126447568 52.68670076713897,203.8306253607152 52.2723785166163,201.46425769868074" stroke="#FF6B6B" stroke-linecap="round" stroke-linejoin="round" stroke-width="0.5"><title>2025-08-12 10.1km</title><desc>1754949379000</desc></polyline><polyline fill="none" points="136.5424448219128,203.20516334014246 137.57385398983024,200.59637306124205 136.4049235994462,197.06186711823102 133.7920203737449,196.89355685538612 131.79796264856122,194.36889793846058 108.21307300496846,196.89355685538612 105.25636672321707,198.9132772734156 104.5,202.19531022000592 107.31918505951762,223.90682343405206 106.97538200370036,231.64874657895416 108.41935483878478,238.29663233319297 115.50169779290445,252.51784168806626 120.86502546700649,256.3886521717068 126.29711375222541,257.9033111758763 138.05517826834694,253.61176861228887 145.5500848898664,254.53739771904657 154.48896434623748,251.59220984607236 170.78522920189425,248.73115804512054 173.67317487252876,246.12254155258415 175.18590831919573,233.24761108419625 181.09932088293135,223.73851978295716 184.74363327678293,214.31344916624948 185.2937181664165,209.7691722442396 173.32937181647867,205.64563555229688 154.282682512654,192.2650083822664 145.0,192.51747547101695 108.21307300496846,196.89355685538612 105.53140916815028,198.49250267847674 104.5,201.69038310047472 107.2504244481679,222.64454504061723 106.63157894765027,231.2279921399895 108.55687606125139,238.80153240647633 113.57640067930333,249.15190170833375 119.07724957563914,255.46302557224408 125.95331069617532,257.98745879984926 138.1926994905807,253.52762044937117 146.10016977926716,254.36910161108244 173.0543293717783,247.46892550191842 175.7359932088293,232.32195314229466 182.1307300508488,221.88717688526958 185.43123938865028,209.85332579532405 183.98726655356586,208.50686773640336 176.6986417658627,207.4970224510762 155.58913412550464,192.76994246663526 150.91341256373562,192.01254120015074 111.16977928695269,196.7252465513302 105.73769100173377,198.6608125473722 104.6375212224666,203.37347204837715 107.59422750445083,223.14945667766733 107.2504244481679,233.66836427967064 108.41935483878478,238.46493239916163 115.29541595932096,252.26539676461834 119.97113752132282,255.96791296382435 126.09083191864192,257.9033111758763 137.36757215624675,253.78006490675034 147.06281833606772,254.0325092707062 156.00169779290445,251.1714676853735 168.37860780977644,249.23605040984694 173.39813242806122,246.4591377886245 175.52971137524582,232.15365156362532 182.405772495782,221.04565572808497 185.5,211.11562781612156 184.94991511036642,209.0117898194003 176.62988115428016,207.41286861000117 154.00764006818645,192.09669693768956 133.03565365052782,194.62136424978962 133.44821731746197,196.89355685538612 136.4049235994462,197.14602223417023 137.71137521229684,204.71994022181025" stroke="#FF6B6B" stroke-linecap="round" stroke-linejoin="round" stroke-width="0.5"><title>2025-07-26 10.0km</title><desc>1753480586000</desc></polyline></svg>