<?xml version="1.0" standalone="no"?>
<!DOCTYPE svg PUBLIC "-//W3C//DTD SVG 20010904//EN"
 "http://www.w3.org/TR/2001/REC-SVG-20010904/DTD/svg10.dtd">
<svg version="1.0" xmlns="http://www.w3.org/2000/svg"
 width="132.000000pt" height="132.000000pt" viewBox="0 0 132.000000 132.000000"
 preserveAspectRatio="xMidYMid meet">

<g transform="translate(0.000000,132.000000) scale(0.100000,-0.100000)"
fill="#000000" stroke="none">
<path d="M0 1090 l0 -230 84 2 84 3 7 30 6 30 14 -25 c9 -15 14 -19 15 -10 0
27 102 160 122 160 10 0 18 7 18 16 0 17 38 53 56 54 6 0 19 9 29 20 10 11 24
20 32 20 14 0 59 26 81 47 7 7 20 13 28 13 8 0 26 7 39 16 30 19 32 15 6 -14
-10 -12 -27 -22 -39 -22 -11 0 -22 -6 -25 -14 -4 -10 1 -12 16 -9 12 2 3 -7
-21 -19 -24 -13 -40 -27 -36 -31 4 -4 0 -7 -9 -7 -9 0 -17 -4 -17 -10 0 -5 -9
-10 -20 -10 -11 0 -20 -7 -20 -15 0 -21 -42 -60 -60 -57 -11 2 -12 1 -2 -6 10
-7 9 -18 -7 -56 -12 -26 -16 -44 -11 -41 6 3 7 -1 4 -9 -7 -18 21 -50 36 -41
5 3 10 -2 10 -12 0 -29 56 -106 92 -125 19 -10 54 -17 83 -17 l50 1 -61 13
c-74 16 -93 27 -122 71 -37 57 -39 114 -7 179 44 86 128 125 269 125 108 0
247 -44 229 -73 -3 -6 -1 -7 5 -3 14 8 43 -6 97 -48 55 -43 65 -53 60 -60 -3
-3 -2 -4 2 -1 3 3 12 0 19 -6 10 -9 15 -7 20 5 3 9 12 16 20 16 17 0 18 -12 2
-28 -10 -10 -10 -15 2 -22 20 -12 33 -2 27 22 -4 14 -2 18 10 14 8 -3 17 -6
19 -6 9 0 3 -37 -8 -49 -11 -11 -8 -12 14 -7 15 3 29 2 32 -3 3 -5 15 -7 25
-4 19 5 20 16 20 234 l1 229 -660 0 -660 0 0 -230z m539 6 c-2 -2 -17 -6 -34
-10 -22 -5 -26 -4 -15 4 14 9 59 15 49 6z"/>
<path d="M890 1055 c24 -8 46 -13 48 -11 5 5 -59 26 -77 25 -9 0 4 -7 29 -14z"/>
<path d="M1140 888 c0 -9 5 -20 11 -23 17 -11 18 -2 3 19 -12 17 -14 17 -14 4z"/>
<path d="M1250 850 c0 -5 5 -10 10 -10 6 0 10 5 10 10 0 6 -4 10 -10 10 -5 0
-10 -4 -10 -10z"/>
<path d="M281 834 c0 -11 3 -14 6 -6 3 7 2 16 -1 19 -3 4 -6 -2 -5 -13z"/>
<path d="M352 820 c0 -14 2 -19 5 -12 2 6 2 18 0 25 -3 6 -5 1 -5 -13z"/>
<path d="M197 791 c-4 -17 -3 -21 5 -13 5 5 8 16 6 23 -3 8 -7 3 -11 -10z"/>
<path d="M272 760 c0 -19 2 -27 5 -17 2 9 2 25 0 35 -3 9 -5 1 -5 -18z"/>
<path d="M161 744 c0 -11 3 -14 6 -6 3 7 2 16 -1 19 -3 4 -6 -2 -5 -13z"/>
<path d="M748 733 c6 -2 18 -2 25 0 6 3 1 5 -13 5 -14 0 -19 -2 -12 -5z"/>
<path d="M435 650 c3 -5 16 -15 28 -21 22 -12 22 -12 3 10 -19 21 -43 30 -31
11z"/>
<path d="M1103 580 c0 -25 2 -35 4 -22 2 12 2 32 0 45 -2 12 -4 2 -4 -23z"/>
<path d="M770 591 c82 -10 134 -43 160 -101 10 -24 10 -24 4 5 -12 65 -79 106
-166 104 l-53 -2 55 -6z"/>
<path d="M1211 584 c0 -11 3 -14 6 -6 3 7 2 16 -1 19 -3 4 -6 -2 -5 -13z"/>
<path d="M1171 524 c0 -11 3 -14 6 -6 3 7 2 16 -1 19 -3 4 -6 -2 -5 -13z"/>
<path d="M186 517 c3 -10 9 -15 12 -12 3 3 0 11 -7 18 -10 9 -11 8 -5 -6z"/>
<path d="M1022 495 c0 -16 2 -22 5 -12 2 9 2 23 0 30 -3 6 -5 -1 -5 -18z"/>
<path d="M1091 504 c0 -11 3 -14 6 -6 3 7 2 16 -1 19 -3 4 -6 -2 -5 -13z"/>
<path d="M370 296 c0 -3 9 -10 20 -16 11 -6 20 -8 20 -6 0 3 -9 10 -20 16 -11
6 -20 8 -20 6z"/>
<path d="M450 271 c8 -5 31 -11 50 -15 24 -4 28 -3 15 2 -31 14 -83 24 -65 13z"/>
<path d="M783 231 c-65 -21 -81 -36 -28 -26 38 7 95 31 95 40 0 7 -8 5 -67
-14z"/>
<path d="M845 100 c-4 -6 -18 -10 -32 -7 -17 3 -23 1 -19 -9 3 -9 0 -11 -11
-7 -9 4 -14 2 -11 -3 3 -5 -7 -9 -24 -10 -21 -1 -28 3 -24 13 5 11 -46 13
-327 9 -182 -2 -347 -5 -364 -5 -32 -1 -33 -3 -33 -40 l0 -40 583 2 c554 1
584 2 579 19 -2 10 1 18 7 18 6 0 11 -9 11 -20 0 -18 7 -20 70 -20 l70 0 0 45
0 45 -220 0 c-169 0 -220 -3 -220 -12 -1 -7 -7 -2 -14 11 -9 17 -15 20 -21 11z"/>
</g>
</svg>
